<?xml version="1.0" encoding="UTF-8"?>
<svg id="Cut_Heart" data-name="Cut Heart" xmlns="http://www.w3.org/2000/svg" version="1.1" viewBox="0 0 1080 1080">
  <defs>
    <style>
      .cls-1 {
        fill: #000;
        stroke-width: 0px;
      }
    </style>
  </defs>
  <path class="cls-1" d="M1080,50.9c-9,21.5-27.4,35.1-43.1,50.9-162.9,163.1-326.1,326-489.1,489-143.7,143.8-287.4,287.6-431.1,431.4-14.6,14.6-29.2,29.1-43.8,43.7-17.9,17.8-43.7,18.8-60.3,2.3-17-16.9-16.9-42.1,1-60.2,41-41.3,82.2-82.4,123.5-123.4,26.1-26,52.3-51.7,79.2-78.3-11.5-12.6-22.3-24-32.6-35.9-73.8-86.2-122.7-184.6-137.5-297.6-11-84.3-1.3-166.4,40.4-242.4,51.2-93.2,143.9-139.5,252.2-131.9,87.8,6.1,145.5,57.3,186.4,131.1,5.2,9.3,9.5,19,15,30.2,5.4-10.7,9.9-20.5,15-30,23.3-43.2,54.1-79.6,97.2-104.6,46.4-26.9,96.5-31.9,148.6-25.3,29.5,3.7,57.6,12.1,84.1,25.5,7.3,3.7,10.6.2,15-4.2,33.3-33.4,66.5-66.8,100-100,32.3-32,58.3-28,79.9,11.8v17.7h0Z"/>
  <path class="cls-1" d="M1038.2,416.7c-1.3,100.2-30.6,191.8-84.8,275.9-53.5,83.1-122.4,151.5-199.8,211.9-62.3,48.6-129,90.3-199.1,126.6-10.2,5.3-18.3,5.8-28.3-.3-46.6-28.1-93.7-55.4-140.4-83.3-12.7-7.6-13.3-18.5-2.8-29.1,81.7-81.7,163.6-163.4,245.3-245.2,88-88,175.8-176.1,263.8-264.2,34.6-34.6,69.2-69.3,103.9-103.8,11.7-11.6,26.7-7.9,29.6,8.5,5.9,34,10.4,68.2,15.5,102.4-.9.2-1.9.4-2.8.6h0Z"/>
</svg>