<?xml version="1.0" encoding="UTF-8"?>
<svg id="Broken_Heart" data-name="Broken Heart" xmlns="http://www.w3.org/2000/svg" version="1.1" viewBox="0 0 1080 1080">
  <defs>
    <style>
      .cls-1 {
        fill: #000;
        stroke-width: 0px;
      }
    </style>
  </defs>
  <path class="cls-1" d="M0,372.7v-58.8c.5-2.4,1.1-4.7,1.5-7.1,5.9-30.4,9.4-61.6,18.1-91,19.2-64.9,54.2-118.5,104.6-159.6C163.8,23.9,209.1,8.6,257.5,3.6c52.6-5.4,102.1,6,147.9,35.7,54.5,35.2,94.2,86.1,127.2,143.6,23.2,40.3,44.3,81.9,66.3,123,1.9,3.5,3.4,7.2,5,10.6-1.8,1.8-2.7,2.8-3.7,3.6-50.4,40.5-100.8,80.9-151.2,121.5-20.5,16.5-21.4,38-2.2,55.9,26.3,24.6,52.9,48.9,79.3,73.4,18.1,16.7,36.1,33.5,54.4,50.5-1.3,2.3-2.1,4.2-3.4,5.7-31.5,37.3-62.8,74.9-94.8,111.8-11.7,13.5-15,27.5-8.7,44.8,12.9,35.4,25,71.2,38.1,106.5,2.5,6.8,7,13.6,12.3,18,9.8,8.3,24.5,7,34.1-1.2,9.7-8.3,13.2-22.8,8.3-37.2-9.6-28.2-19.2-56.4-29.7-84.2-3.6-9.6-2-15.6,4.3-23,34-39.6,67.6-79.6,101.3-119.5,14.2-16.8,13.2-35.7-2.5-50.3-28.1-26-56.3-52-84.5-78.1-15.1-14-30.1-28-45.8-42.6,3.5-3.1,5.9-5.3,8.4-7.3,45.5-36.6,91.1-73,136.4-109.7,18.1-14.6,21.2-27.9,10.4-48.9-27-52.4-54.5-104.5-82.3-156.5-9.6-17.9-10.3-17.7,1.3-34.4,29.9-43,67.2-76,113.5-95.7,73.7-31.2,146.9-23.8,217.4,10.4,64.5,31.3,107.5,87.7,135.7,156.9,35,86.2,37,175.6,16.4,266.2-19.6,85.8-57,162.4-103.7,233.8-36,55.1-77.4,105.4-121.8,152.7-79.3,84.4-166.7,157.7-258.8,224.6-28.8,20.9-57.1,20.9-86.2-.5-73.7-54.5-145.1-112.1-211.4-177-77.5-75.8-147.6-158.7-202-256.2-35.8-64.2-62.8-132.2-75.4-206.4-2.9-17.1-5-34.4-7.5-51.6h0Z"/>
</svg>