<?xml version="1.0" encoding="UTF-8"?>
<svg id="Hearts" xmlns="http://www.w3.org/2000/svg" viewBox="0 0 1080 1080">
  <path d="M.85,1080c-.3-3.65-.99-7.31-.83-10.94,5.82-130.03,12.07-260.05,17.46-390.1,2.56-61.72,23.34-115.61,67.53-158.89,53.28-52.2,117.7-76.23,192.17-64.45,87.21,13.79,151.85,91.35,152.91,179.65.19,15.79-2.06,13.95,13.59,14.06,111.15.81,196.84,99.98,181.89,210.22-10.19,75.14-48.8,131.73-112.82,170.98-33.57,20.58-71.04,29.23-110.45,30.89-125.24,5.28-250.45,11.09-375.67,16.77-5.51.25-10.99,1.19-16.49,1.8H.85Z" style="fill: #000; stroke-width: 0px;"/>
  <path d="M725.35,0c22.63,6.6,32.2,22.02,31.46,45.14-.55,17.2-.11,34.43-.11,53.34-22.5-1.48-46.43-1.2-69.63-5.14-21.5-3.65-31.81-30.49-21.17-48.5,5.59-9.47,14.64-12.69,25.53-13.99.59-16.19,10.21-25.49,24.63-30.85h9.29Z" style="fill: #000; stroke-width: 0px;"/>
  <path d="M870.9,556.81c20.09,1.58,38.17,7.4,54.23,19.71,47.79,36.64,41.57,114.97-11.55,143.49-12.79,6.87-26.18,11.12-40.69,11.15-56.95.12-113.9.08-170.85.07-1.52,0-3.04-.27-4.95-.46-.31-1.87-.85-3.63-.86-5.4-.03-56.58-.65-113.17.2-169.73.82-54.42,51.25-94.21,104.07-83.42,38.08,7.78,65.4,38.02,69.57,76.98.26,2.41.52,4.82.83,7.6Z" style="fill: #000; stroke-width: 0px;"/>
  <path d="M968.41,244.98c-24.87-1.76-48.35-2.41-71.51-5.45-14.07-1.84-22.2-12.82-25.63-26.36-2.82-11.14.65-20.73,9.14-28.47.69-.63,1.28-1.66,2.06-1.82,13.86-2.92,18.8-13.63,25.41-24.82,10.2-17.27,38.17-14.52,50.32,3.72,3.32,4.98,6.07,11.18,6.55,17.03,1.76,21.22,2.45,42.53,3.66,66.17Z" style="fill: #000; stroke-width: 0px;"/>
  <path d="M1026.85,375.11c1.44-.81,2.53-1.33,3.53-2,14.39-9.65,26.14-9.39,37.95.86,11.35,9.86,15.75,27.93,7.19,40.37-9.54,13.86-21.49,26.08-32.55,38.88-4.8,5.55-9.99,10.77-15.77,16.96-11.84-12.86-23.21-24.93-34.22-37.31-5.09-5.72-10.34-11.57-14.01-18.2-9.09-16.42-2.07-37.61,14.69-45.83,12.43-6.1,23.37-2.26,33.2,6.28Z" style="fill: #000; stroke-width: 0px;"/>
</svg>