<?xml version="1.0" encoding="UTF-8"?>
<svg id="Heart" xmlns="http://www.w3.org/2000/svg" version="1.1" viewBox="0 0 1080 1080">
  <defs>
    <style>
      .cls-1 {
        fill: #000;
        stroke-width: 0px;
      }
    </style>
  </defs>
  <path class="cls-1" d="M773.8,0h16.5c3,.5,6,1.2,9.1,1.4,136.1,9.2,231.5,104.4,266.2,223.2,25.4,86.8,14.8,173-11.8,257.7-21.4,68.1-56,129.6-94.7,189.4-42.7,66.1-90,128.2-145,184.5-79.2,81.1-165.9,153.2-259.4,217.2-12.3,8.4-17.8,8.6-29.9.2-19.9-13.9-40-27.7-59.4-42.2-67.3-50.3-130.6-105.1-190.2-164.3-67-66.5-122.4-141.8-172.3-221.6C53.4,566.4,15.8,482.8,3.6,389.2c-13.6-104.7,11-198.5,78.9-279.8C135.6,45.8,202.7,6.6,286.5,2.1c94.6-5.2,173.9,30,239.2,97.7,4.6,4.8,9,9.8,13.8,15,2.8-2.9,4.7-4.9,6.5-6.9,41.3-46,91.4-78.5,151.1-94.4,25-6.7,51.1-9,76.7-13.3Z"/>
</svg>