<?xml version="1.0" encoding="UTF-8"?>
<svg id="Layer_2" data-name="Layer 2" xmlns="http://www.w3.org/2000/svg" xmlns:xlink="http://www.w3.org/1999/xlink" viewBox="0 0 821.03 821.03">
  <defs>
    <style>
      .cls-1 {
        stroke: url(#linear-gradient-2);
      }

      .cls-1, .cls-2, .cls-3, .cls-4, .cls-5, .cls-6, .cls-7, .cls-8, .cls-9, .cls-10 {
        fill: none;
      }

      .cls-1, .cls-2, .cls-3, .cls-5, .cls-6, .cls-7, .cls-8, .cls-9, .cls-10 {
        stroke-miterlimit: 10;
      }

      .cls-11 {
        stroke: #3f3f3f;
      }

      .cls-11, .cls-4, .cls-12, .cls-13 {
        stroke-miterlimit: 10;
      }

      .cls-11, .cls-14 {
        fill: #848484;
      }

      .cls-15, .cls-16, .cls-17, .cls-14, .cls-18 {
        stroke-width: 0px;
      }

      .cls-15, .cls-12, .cls-13 {
        fill: #000;
      }

      .cls-2 {
        stroke-dasharray: 0 0 11.82 11.82;
      }

      .cls-2, .cls-5, .cls-12, .cls-8, .cls-10 {
        stroke: #000;
      }

      .cls-3 {
        stroke: url(#linear-gradient-4);
      }

      .cls-4 {
        stroke: #fff;
        stroke-width: 4px;
      }

      .cls-6 {
        stroke: url(#linear-gradient);
      }

      .cls-6, .cls-9, .cls-10 {
        stroke-width: 3px;
      }

      .cls-16 {
        fill: #ddd;
      }

      .cls-7 {
        stroke: url(#linear-gradient-5);
      }

      .cls-12, .cls-13 {
        stroke-width: .5px;
      }

      .cls-17 {
        fill: #bbb;
      }

      .cls-8 {
        stroke-dasharray: 0 0 11.84 11.84;
      }

      .cls-18 {
        fill: #fff;
      }

      .cls-13 {
        stroke: #3e3d3b;
      }

      .cls-9 {
        stroke: url(#linear-gradient-3);
      }
    </style>
    <linearGradient id="linear-gradient" x1="506.88" y1="179.72" x2="788.6" y2="179.72" gradientUnits="userSpaceOnUse">
      <stop offset=".73" stop-color="#231f20"/>
      <stop offset=".75" stop-color="rgba(39, 35, 36, .58)" stop-opacity=".58"/>
      <stop offset=".79" stop-color="rgba(42, 39, 39, .25)" stop-opacity=".25"/>
      <stop offset=".85" stop-color="rgba(44, 41, 41, .05)" stop-opacity=".05"/>
      <stop offset="1" stop-color="#2d2a2a" stop-opacity="0"/>
    </linearGradient>
    <linearGradient id="linear-gradient-2" x1="305.82" y1="661.37" x2="466.31" y2="661.37" gradientUnits="userSpaceOnUse">
      <stop offset=".3" stop-color="#fff" stop-opacity="0"/>
      <stop offset=".46" stop-color="#2b2728" stop-opacity=".96"/>
      <stop offset="1" stop-color="#231f20"/>
    </linearGradient>
    <linearGradient id="linear-gradient-3" x1="184.82" y1="513.46" x2="771.8" y2="513.46" gradientUnits="userSpaceOnUse">
      <stop offset=".89" stop-color="#231f20"/>
      <stop offset="1" stop-color="#fff" stop-opacity="0"/>
    </linearGradient>
    <linearGradient id="linear-gradient-4" x1="400.21" y1="438.9" x2="750.18" y2="438.9" gradientUnits="userSpaceOnUse">
      <stop offset=".73" stop-color="#231f20"/>
      <stop offset=".85" stop-color="#231f20"/>
      <stop offset="1" stop-color="#fff" stop-opacity="0"/>
    </linearGradient>
    <linearGradient id="linear-gradient-5" x1="120.24" y1="667.58" x2="219.68" y2="667.58" gradientUnits="userSpaceOnUse">
      <stop offset="0" stop-color="#fff" stop-opacity="0"/>
      <stop offset=".14" stop-color="#231f20"/>
    </linearGradient>
  </defs>
  <g id="Layer_1-2" data-name="Layer 1">
    <rect class="cls-16" width="821.03" height="821.03"/>
    <path class="cls-17" d="M433.8,399.09c-5.17-2.3-51.7-42.21-51.7-42.21l-84.81-11.18-30.14,24.07-25.03,9.67s-7.09,22.52-8.81,23.09-36.39,27.28-36.39,27.28l4.61,49.2,19.14,19.17,3.45,21.03s-2.3,23.49-.57,25.79,20.11,14.36,20.11,14.36l37.91,18.16s3.45,15.16,3.45,16.88,34.4-4.29,34.4-4.29l22.7-12.59s8.46,3.48,9.29,6.45,33.56-10.24,33.56-10.24l8.44-32.74,23.74-12.64s26.43-9.82,33.89-3.48,21.26,17.26,21.26,17.26c0,0,31.02-29.65,32.17-34.07s8.68-52.1,8.68-52.1l17.74-18.92s-5.84-29.33-8.95-29.91-46.4-28.15-46.4-28.15l-41.74,20.11Z"/>
    <path class="cls-4" d="M544.84,586.65l-18.74-108.25-67.79-64.06s-30.26-58.21-30.26-59.36,22.98-53.62,22.98-53.62l-54.38-40.98-3.26-36.51"/>
    <rect class="cls-13" x="620.19" y="472.66" width="42.48" height="30.67" transform="translate(10.65 989.67) rotate(-75.76)"/>
    <path class="cls-18" d="M744.06,657.31l-102.63-62.62h-42.63l-53.96-8.04-86.21,27-37.82,27.77s-22.5,42.31-22.5,45.18,22.5,43.09,22.5,43.09l-60.99,33.89,25.03,27.57,80.09-10.91,53.43,21.26,33.56-29.3,49.73,8.04,77.55-5.17s49.98-21.26,52.85-22.4-29.3-53.43-29.3-53.43l41.28-41.94Z"/>
    <path class="cls-12" d="M485.58,604.73c0,.99-.62,1.8-1.39,1.8v18h-13.28v-18c-.77,0-1.39-.81-1.39-1.8s.62-1.81,1.39-1.81v-8.65c-.77,0-1.39-.81-1.39-1.8s.62-1.81,1.39-1.81,1.38.81,1.38,1.81c0,.03,0,.08,0,.11h10.53c0-1,.62-1.81,1.38-1.81s1.39.81,1.39,1.81-.62,1.8-1.39,1.8v8.53c.77,0,1.39.81,1.39,1.81Z"/>
    <g>
      <polygon class="cls-15" points="564.46 233.22 532.72 256.57 513.14 228.61 544.88 205.26 564.46 233.22"/>
      <rect class="cls-15" x="513.75" y="203.02" width="16.37" height="23.67" transform="translate(-28.85 338.23) rotate(-35)"/>
    </g>
    <g>
      <rect class="cls-15" x="323.68" y="374.99" width="71.04" height="71.04" transform="translate(-185.07 374.23) rotate(-45)"/>
      <rect class="cls-15" x="289" y="434.56" width="61.66" height="30.64" transform="translate(-224.44 357.92) rotate(-45)"/>
      <rect class="cls-15" x="236.32" y="415.71" width="61.66" height="113.4" transform="translate(-255.8 327.27) rotate(-45)"/>
    </g>
    <path class="cls-14" d="M101.98,170.58l35.04,19.49,9.77,36.23,7.15,4.61,11.81,14.35v27l13.85,9.97,20.04-5.95,10.34,8.62,4.6,22.4,7.47,5.79h23.55l12.64-12.69,16.66-8.04,15.76,2.87,20.03-1.72,19.93-25.28-2.87-20.11,28.99-9.77,14.36,6.32,29.6-16.09s18.96-26.43,22.12-28.15,17-29.87,17-29.87l-29.35-20.68,29.35-17.23,47.67,11.49,6.86,10.91,27.59-1.13,6.3-12.66,8.04-13,11.49-4.24s-4.6-12.06-6.32-16.09-2.65-27-2.65-27l-4.24-22.98-34.95-14.94s-48.92-5.17-50.65-5.17-35.04-14.94-37.34-16.66-16.09,1.15-20.68,0-31.6,13.79-31.6,13.79l-16.54,28.72s-21.69,8.04-22.97,8.62-55.27-10.34-55.27-10.34c0,0-7.47-8.04-14.36-11.49s-31.02,5.17-32.74,5.74-14.36,18.38-14.36,18.38l-17.71,17.23-29.39,1.15-37.34,10.34-8.62,18.38-18.96,18.38v17.23l10.91,13.21Z"/>
    <path class="cls-11" d="M169.77,125.77l-16.09,9.19-16.66,15.51,13.79,12.64s6.89,9.19,8.62,13.21,2.3,10.26,1.72,13.75,12.06,24.78,12.06,24.78c0,0,6.32,19.49,6.32,21.21s7.47,14.11,9.19,14.52,22.4,10.18,22.4,10.18c0,0,12.06,0,14.36,8.62s5.42,12.84,5.42,12.84l25.66,6.29,21.2-16.26,12.89-6.32,10.67,1.72,4.6-20.11,4.77-16.64s5.57-4.61,17.06-4.61h25.85l21.83-6.32s12.64-8.62,14.36-9.19,14.32-10.91,14.32-10.91l4.76-7.47-8.73-12.81-4.6-21.08-1.15-12.06s9.19-13.21,12.06-14.36,21.26-4.6,24.13-6.32,32.74-4.02,32.74-4.02l18.96,9.19s.64,5.17,5.2,7.47,19.96-4.6,19.96-4.6c0,0,2.98-3.45,7.01-5.17s12.64-6.89,12.64-6.89v-12.06l8.04,1.72-6.32-13.21s-1.15-6.32-2.3-9.19-13.82-29.87-13.82-29.87l-46.5-5.17s-8.62,2.87-13.21,0-21.83-15.51-21.83-15.51c0,0-.57-3.45-8.33,0s-5.8,6.32-13.96,10.91-9.88,12.64-9.88,17.81-17.81,12.64-19.53,13.79-16.66.57-16.66.57c0,0-1.76-6.32-6.05,0s-23.2,16.09-23.2,16.09c0,0,1.67,5.17-6.37,4.02s-22.4-12.06-22.4-12.06l-14.11-4.02-4.17,1.15-25.38,6.32-22.98,17.23-7.22-7.63-15.76-3.86-21.26,1.72s3.45,8.62.57,10.91-24.7,14.36-24.7,14.36Z"/>
    <path class="cls-11" d="M205.49,122.13l-25.34,8.29-4.31,13.81s-5.39.04,0,10.26,15.81,10.22,15.72,14.53-.87,14.02-2.1,15.63-2.55,15.88,0,16.83,6.32,11.74,6.86,13.36,5.39,7.01,5.39,7.01l11.86,9.7,12.4,8.63,8.32,7.01,12.16,16.17,31.27-8.63,12.63-17.25,11.63-14.56,10.78-8.09,4.58.54,18.6-3.73,16.42-2.2,8.37-10.78v-12.4l5.1-7.71-5.64-15.84,5.64-19.58s15.38-14.02,17.54-15.09,9.16-5.93,9.16-5.93l10.24-4.85v-13.48l11.59,5.39s20.75,2.7,22.37,3.23,14.02-3.77,14.02-3.77l13.08,4.85,22.59,7.01,12.28-10.24-.5-6.47-18.87-21.53-23.18-7.58h-33.96l-1.62-4.31s-14.56,7.01-16.17,8.63-21.02,13.48-25.34,18.33-19.98,16.77-26.7,18.36-20.74,5.9-23.97,6.98-24.8-2.16-24.8-2.16l-13.24-7.01-22.06,2.19s3.51,2.67,0,7.52-15.37,5.8-20.76,7.21-8.09-2.9-9.7-3.44-18.33-8.63-22.64-7.55-9.7,2.7-9.7,2.7Z"/>
    <path class="cls-11" d="M200.19,159.76c1.1,2.19,5.48,11.64,7.67,17.32s3.83,14.44,3.83,18.82-3.29,13.14,2.19,17.52,10.4,5.48,13.69,7.67,7.05,4.96,9,10.42,12.9,12.03,12.9,12.03h14.78l9.86-23s25.19-23.54,26.83-23.54,12.05-3.29,17.52-2.19,13.06-2.19,17.21-6.57,15.65-27.38,15.65-27.38c0,0-.55-3.29,0-8.21s-1.21-9.86-4.71-10.4-10.62-3.83-15.55-1.1-4.93,3.83-19.16,7.67c-14.24,3.83-23.54,0-27.92-.55s-3.81-4.38-8.2-4.38-7.13-4.38-15.34,1.1,3.29,8.76-10.95,6.02c-14.24-2.74-27.92-12.59-27.92-12.59,0,0-22.45,19.16-21.35,21.35Z"/>
    <g>
      <polyline class="cls-5" points="694.26 673.93 694.26 679.93 688.26 679.93"/>
      <line class="cls-8" x1="676.43" y1="679.93" x2="137.9" y2="679.93"/>
      <polyline class="cls-5" points="131.98 679.93 125.98 679.93 125.98 673.93"/>
      <line class="cls-2" x1="125.98" y1="662.11" x2="125.98" y2="124.5"/>
      <polyline class="cls-5" points="125.98 118.59 125.98 112.59 131.98 112.59"/>
      <line class="cls-8" x1="143.82" y1="112.59" x2="682.35" y2="112.59"/>
      <polyline class="cls-5" points="688.26 112.59 694.26 112.59 694.26 118.59"/>
      <line class="cls-2" x1="694.26" y1="130.41" x2="694.26" y2="668.02"/>
    </g>
    <circle class="cls-15" cx="342.12" cy="498.7" r="3.12"/>
    <circle class="cls-15" cx="336.13" cy="512.48" r="2.87"/>
    <circle class="cls-15" cx="326.44" cy="525.27" r="6.28"/>
    <circle class="cls-15" cx="350.89" cy="528.09" r="2.83"/>
    <circle class="cls-15" cx="353.82" cy="510.99" r="2.93"/>
    <circle class="cls-15" cx="346.63" cy="517.24" r="4.26"/>
    <circle class="cls-15" cx="606.94" cy="495.41" r="2.33"/>
    <circle class="cls-15" cx="606.25" cy="476.21" r="3.02"/>
    <circle class="cls-15" cx="584.12" cy="478.4" r="5.99"/>
    <circle class="cls-15" cx="599.25" cy="486.7" r="2.3"/>
    <circle class="cls-15" cx="591.08" cy="493.59" r="4.6"/>
    <circle class="cls-15" cx="621.04" cy="481.3" r="2.9"/>
    <circle class="cls-15" cx="613.38" cy="466.02" r="2.39"/>
    <circle class="cls-15" cx="566.31" cy="582.63" r="2.68"/>
    <circle class="cls-15" cx="576.97" cy="583.97" r="2.68"/>
    <circle class="cls-15" cx="588.03" cy="585.31" r="2.68"/>
    <circle class="cls-15" cx="599.9" cy="586.65" r="2.68"/>
    <circle class="cls-15" cx="611.2" cy="587.43" r="2.68"/>
    <circle class="cls-15" cx="621.92" cy="587.91" r="2.68"/>
    <circle class="cls-15" cx="633.22" cy="587.99" r="2.68"/>
    <circle class="cls-15" cx="645.89" cy="588.97" r="2.68"/>
    <circle class="cls-15" cx="656.17" cy="593.36" r="2.68"/>
    <circle class="cls-15" cx="568.99" cy="269.48" r="3.02"/>
    <circle class="cls-15" cx="594.61" cy="280.1" r="6.55"/>
    <circle class="cls-15" cx="564.46" cy="288.05" r="6.55"/>
    <circle class="cls-15" cx="580.82" cy="298.95" r="4.7"/>
    <circle class="cls-15" cx="565.98" cy="307.89" r="3.02"/>
    <circle class="cls-15" cx="549.28" cy="297.44" r="1.51"/>
    <circle class="cls-15" cx="553.71" cy="307.89" r="2.45"/>
    <polyline class="cls-6" points="506.99 180.58 561.58 184.6 627.62 196.67 694.26 180.58 788.32 162.72"/>
    <polyline class="cls-10" points="313.93 442.53 286.93 410.29 305.89 382.21 291.53 331.08 403.73 327.06 437.2 273.33 447.78 256.35 508.33 180.01"/>
    <rect class="cls-15" x="533.82" y="556.37" width="13.53" height="8.04" transform="translate(-93.95 109.13) rotate(-10.61)"/>
    <polyline class="cls-1" points="306.15 750.44 398.25 669.54 415.87 638.9 439.99 616.49 465.8 604.44 464.08 571.96"/>
    <polyline class="cls-9" points="287.31 410.51 248.12 393.79 206.38 425.58 186.46 472.41 212.89 528.6 198.33 568.81 230.12 633.15 351.41 609.03 359.2 606.44 462.21 572.26 502.22 565.76 537.07 561.36 574.29 553.95 611.2 543.71 657.49 555.68 771.18 504.66"/>
    <polyline class="cls-5" points="487.57 421.27 487.57 508.06 413.57 526.04 351.41 609.03"/>
    <rect class="cls-15" x="478.67" y="437.42" width="17.8" height="8.04" transform="translate(46.13 929.02) rotate(-90)"/>
    <rect class="cls-15" x="422.98" y="282.05" width="14.49" height="8.04" transform="translate(-46.32 485.64) rotate(-56.34)"/>
    <polyline class="cls-3" points="400.71 228.6 401.87 256.57 437.58 273.55 469.12 297.44 442.42 355.43 469.12 405.27 530.89 458.83 538.22 495.41 543.19 524.87 549.28 548.34 553.71 577.52 574.29 575.53 596.95 575.91 629.75 577.52 660.17 581.29 683.36 601.95 749.89 648.82"/>
    <polyline class="cls-5" points="523.05 452.04 594.61 410.51 590.11 348.93 574.29 310.9 574.29 281.5 595.67 250.7 627.66 230.91 650.94 191.51"/>
    <polyline class="cls-7" points="120.72 726.5 157.17 609.03 219.66 611.98"/>
    <polyline class="cls-5" points="628.27 548.12 624.61 526.04 628.52 518.67 634.16 508.06"/>
    <polyline class="cls-5" points="586.99 414.94 603.24 450.34 596.95 470.21 613.88 497.75 606.25 508.06 628.52 518.67"/>
    <polyline class="cls-5" points="323.75 457.57 365.11 479.23 377.36 497.75 397.66 529.95 407.39 534.28"/>
    <circle class="cls-15" cx="664.2" cy="598.72" r="2.68"/>
    <circle class="cls-15" cx="671.59" cy="604.08" r="2.68"/>
    <circle class="cls-15" cx="681.16" cy="610.28" r="2.68"/>
  </g>
</svg>