<?xml version="1.0" encoding="UTF-8"?>
<svg id="Layer_2" data-name="Layer 2" xmlns="http://www.w3.org/2000/svg" viewBox="0 0 566.93 567.35">
  <defs>
    <style>
      .cls-1 {
        fill: #415669;
      }

      .cls-1, .cls-2, .cls-3, .cls-4, .cls-5, .cls-6, .cls-7, .cls-8 {
        stroke-width: 0px;
      }

      .cls-2 {
        fill: #758a49;
      }

      .cls-3 {
        fill: #5f7e9a;
      }

      .cls-4 {
        fill: #394a2d;
      }

      .cls-5 {
        fill: #8daf7b;
      }

      .cls-9 {
        fill: #7c9d59;
      }

      .cls-9, .cls-10, .cls-11, .cls-12, .cls-13 {
        stroke: #1d1d1b;
        stroke-miterlimit: 10;
      }

      .cls-9, .cls-12 {
        stroke-width: .5px;
      }

      .cls-10 {
        stroke-width: 4px;
      }

      .cls-10, .cls-11, .cls-12, .cls-13 {
        fill: none;
      }

      .cls-11 {
        stroke-width: 2px;
      }

      .cls-6 {
        fill: #474e24;
      }

      .cls-7 {
        fill: #9d7f4d;
      }

      .cls-8 {
        fill: #787e60;
      }
    </style>
  </defs>
  <g id="Layer_1-2" data-name="Layer 1">
    <g>
      <rect class="cls-5" y=".41" width="566.93" height="566.93"/>
      <polygon class="cls-8" points="294.4 289.37 324 362.17 256.89 389.46 251.8 376.95 214.26 392.21 228.6 427.48 189.93 443.2 146.45 336.28 185.12 320.55 204.55 368.33 242.09 353.06 227.29 316.66 294.4 289.37"/>
      <g>
        <rect class="cls-9" x="490.53" y="346.79" width="30.67" height="42.48" transform="translate(106.08 -113.13) rotate(14.24)"/>
        <line class="cls-13" x1="491" y1="364.26" x2="520.72" y2="371.81"/>
        <line class="cls-12" x1="498.42" y1="344.23" x2="487.97" y2="385.4"/>
        <line class="cls-12" x1="524" y1="350.72" x2="513.55" y2="391.9"/>
      </g>
      <path class="cls-2" d="M322.99,62.23c-6.25,4.46-11.02,3.48-40.59,3.83-39.15.47-44.05,2.35-46.73,6.13-8.04,11.37,12.07,28.47,4.6,42.13-9.84,17.98-57.45,11.59-63.57,10.72-23.17-3.27-37.41-13.95-49.03-6.12-12.85,8.65-8.51,30.52-18.38,32.93-8.67,2.12-14.7-14.09-23.74-13.02-13.8,1.63-9.96,40.58-29.11,60.51-12.55,13.07-34.17,17.11-56.22,15.42V0h331.53c4.41,11.32,5.03,19.34,5.03,19.34.49,6.35,1.58,31.96-13.79,42.89Z"/>
      <path class="cls-3" d="M438.65,531.96c-25.08,16.72-41.82,13.08-70.47,21.45-13.12,3.84-22.25,8.29-29.47,12.95h-130.48c12.37-5.04,27.62-12.47,35.87-29.04,8.48-17.02,3.57-31.65,15.32-39.06,8.33-5.26,14.09.02,32.17-.77,21.62-.94,22.78-8.91,50.55-14.55,19.29-3.92,34.63-7.03,49.79,0,16.36,7.59,15.04,18.89,29.87,23.75,21.26,6.96,41.43-10.53,44.43-6.13,2.53,3.71-9.56,19.39-27.58,31.4Z"/>
      <path class="cls-7" d="M372.56,481.4c0,1.14-.93,2.07-2.08,2.07v20.72h-19.91v-20.72c-1.15,0-2.08-.93-2.08-2.07s.93-2.08,2.08-2.08v-9.95c-1.15,0-2.08-.93-2.08-2.07s.93-2.08,2.08-2.08,2.07.93,2.07,2.08c0,.04,0,.09-.01.13h15.78c0-1.15.93-2.08,2.07-2.08s2.08.93,2.08,2.08-.93,2.07-2.08,2.07v9.82c1.15,0,2.08.93,2.08,2.08Z"/>
      <polygon class="cls-8" points="401.95 158.42 388.08 185.47 348.49 165.17 355.43 151.65 368.62 158.41 375.56 144.89 401.95 158.42"/>
      <path class="cls-10" d="M66.72,567.34c-.06-171.76,21.4-47.27,39.27-77.74,105.11-179.32-122.93-40.22-46.53-193.02,76.41-152.81,129.83-9.2,129.83-9.2l33.9,73.37"/>
      <path class="cls-10" d="M233.51,384.39c6.49,15.7,15.6,37.71,19.41,46.87,1.03,2.47,1.92,5,2.7,7.57,2.25,7.39,8.43,23.13,16.01,4.03,9.57-24.13,48.32-9.89,48.32-9.89,12.91,4.37,24.27,20.58,40.58,27.26,24.77,10.13,48.76-21.78,55.74-40.34,8.6-22.87,33.57-12,43.53-39.57,9.96-27.57,19.33-40.21,19.81-62.04s20.4-47.87-32.45-57.45c-5.62-1.02-10.32-.95-14.3-.04-33.46,7.65-15.33,74.86-51.95,56.72-40.98-20.3-59.36-28.72-67.4-75.06s-14.31-62.62,2.68-85.02c16.95-22.34,48.69-7.59,55.15-4.27"/>
      <path class="cls-10" d="M436.84,259.86c13.05-57.26,31.05-23.56,63.99-54.2s11.94-67.4-3.6-86.55-21.67-31.02-6.35-37.91,22.55.06,42.13,8.43c14.46,6.17,33.91,6.15,33.91,6.15"/>
      <path class="cls-11" d="M190.2,289.37s-15.68-26.65,9.6-38.91c25.28-12.26,58.6-19.53,69.7-8.04,11.11,11.49,3.49,31.17,27.19,28.34l23.7-2.83"/>
      <path class="cls-11" d="M441.28,400.2s10.56-9.21,25.29-3.64c14.73,5.57,22.72,5.67,30.65.93,8-4.78,4.39-6.95,4.59-8.41"/>
      <path class="cls-11" d="M122.81,456.23s-9.83,21.61,10.43,35.97,47.84,12.64,60.48,0,44.26-28.48,52.85-16.09c19.91,28.72,75.83,9.77,85.6,0s15.22-23.62,15.22-23.62l1.1-16.28c1.1-16.28,51.61-15.32,51.61-37.91s-34.47,3.83-41.5-24.89c-7.03-28.72,2.82-31.79,28.99-53.37"/>
      <path class="cls-13" d="M120.43,227.4c6.23-53.29,77.32-82.43,77.29-100.61"/>
      <path class="cls-4" d="M291.86,0c-.84,19.44-1.26,29.17-6.9,34.92-3.78,3.86-7.48,4.25-35.61,7.46-22.49,2.57-33.79,3.96-36.77,9.19-3.8,6.69,3.11,11.98,1.15,21.83-2.78,13.98-21.04,25.35-37.34,27.58-31.05,4.24-48.37-25.61-64.34-17.24-14.44,7.58-8.81,36.45-21.26,39.64-10.25,2.64-18.41-15.87-27.57-13.21-14.2,4.12-6.72,52.11-22.98,56.87-4.12,1.21-8.1-.84-10.91-2.3-12.24-6.3-9.67-20.38-21.83-32.74-2.91-2.95-5.15-4.28-7.28-5.22V0h291.64Z"/>
      <path class="cls-6" d="M244.18,14.81c-1.71,4.47-8.5,4.02-37.92,12.06-20.87,5.71-24.36,7.82-27,9.77-13.41,9.93-11.06,20.5-20.68,24.13-9.9,3.73-15.7-6.24-37.34-12.64-5.48-1.62-36.75-10.88-47.68,1.72-8.47,9.77,2.22,24.66-6.32,32.17-9.6,8.45-29.36-4.91-37.34,4.02-5.04,5.64-.3,14.5-3.45,16.09-3.87,1.95-14.81-9.5-26.23-26.14V0h237.45c5.14,5.72,7.93,11.08,6.51,14.81Z"/>
      <path class="cls-1" d="M425.14,532.4c-5.43,8.65-26.17,6.35-52.28,3.45-10.65-1.18-15.38-2.3-22.41,0-11.33,3.71-18.25,12.93-21.83,17.81-3.98,5.45-5.79,9.64-7.04,13.27h-67.01c4.18-5.03,9.34-12.03,14.88-22.46,3.06-5.76,6.81-13.64,13.22-14.36,5.46-.62,7.97,4.51,13.78,3.44,4.3-.78,7.01-4.32,12.07-10.91,5.79-7.55,5-9.5,8.04-11.49,4.47-2.93,11.28-.65,24.7,4.02,16.21,5.64,25.03,8.77,34.47,11.49,12.31,3.55,18.57,5.3,23.55,4.02,12.84-3.29,17.15-16.18,22.41-14.36,4,1.38,6.83,10.68,3.45,16.08Z"/>
      <path class="cls-3" d="M353.11,261.51c-1.62,6.36-9.34,7.29-8.86,10.95.46,3.55,8.23,6.46,15.12,6.26,8.27-.24,12.76-4.88,14.6-3.13,2.8,2.66-7.07,13.87-3.65,18.25,2.4,3.07,10.13,1.26,14.6-1.04,5.75-2.96,8.31-7.88,9.91-10.95,1.45-2.79,5.53-10.62,2.61-14.08-2-2.38-5.19-.19-11.47-2.09-.96-.29-10.11-3.16-11.47-8.86-1.59-6.7,8.99-11.36,7.3-16.16-1.63-4.63-13.34-5.65-21.9-2.61-3.32,1.18-8.42,2.99-9.91,7.3-2,5.81,4.78,9.68,3.13,16.16Z"/>
      <path class="cls-1" d="M364.53,251.66c.53,2.38,1.35,6.05-.4,9.22-1.8,3.27-5.04,3.67-4.81,5.01.18,1.02,2.13,1.34,9.62,2.61,6.7,1.13,8.53,1.45,8.82.8.47-1.09-4.44-2.49-6.41-7.21-1.21-2.89-.78-5.73,0-10.82.94-6.18,2.27-7.55,1.2-9.22-2.07-3.25-10.26-2.99-11.62-.2-.96,1.97,2.23,3.61,3.61,9.82Z"/>
      <path class="cls-1" d="M382.97,275.51c-2.76,3.82-3.96,4.01-4.41,6.21-.41,2.04,0,4.97,1.8,6.01,2.69,1.55,7.76-1.53,8.22-4.61.37-2.49-2.45-3.8-1.8-6.01.72-2.47,4.69-2.41,4.81-4.21.1-1.44-2.3-3.33-4.21-3.01-1.58.27-1.71,1.87-4.41,5.61Z"/>
      <path class="cls-2" d="M540.27,112.46c-4.25-4.03-7.87-7.45-9.89-6.43-2.09,1.06.02,5.56-3.29,9.5-.39.47-1.99,2.31-4.58,3.01-3.88,1.05-6.18-1.49-7.89-.22-1.69,1.25-1.5,5.21.14,7.75,2.36,3.67,7.99,4.76,11.42,2.96,3.49-1.84,3.08-5.83,5.75-6.34,3.32-.63,5.35,5.29,8.84,4.78,2.73-.4,5.07-4.52,4.7-7.99-.25-2.29-1.9-3.9-5.19-7.02Z"/>
      <path class="cls-2" d="M80.39,316.38c-.22,1.59-1.6,2.77-3.21,2.72-3.9-.13-10.15.84-11.36,8.09-1.78,10.66-.61,10.56,3.83,10.72,6.7.24,11.11-.38,8.43,5.74s-7.66,11.87,1.53,11.49,6.13-7.28,15.7-4.98,7.66,5.74,6.13,9.57,11.87,9.96,13.02-2.68,11.49-22.93,4.98-31.36-23.37,2.75-18.01-4.59-2.68-14.19-6.13-16.32-5.36-10.13-10.72,0c-2.85,5.39-3.87,9.19-4.2,11.57Z"/>
      <path class="cls-4" d="M85.15,320.01c.6,2.63,2.29,10.14-3.73,2.87-2.27-2.74-12.07,1.52-12.23,5.46-.1,2.3-2.3,4.31,7.85,6.8,4.56,1.12,7.45-2.93,5.57,1.36s-5.36,8.32,1.07,8.05,4.29-5.1,11-3.49,10.82,5.85,9.74,8.53,5.71,11.15,6.51,2.3-6.26-15.74-10.82-21.64-7.68-6.07-3.93-11.2-.44-7.61-2.85-9.1-3.04-4.7-6.8,2.39c-1.45,2.73-1.9,5.45-1.39,7.66Z"/>
    </g>
  </g>
</svg>