<?xml version="1.0" encoding="UTF-8"?>
<svg id="Layer_2" data-name="Layer 2" xmlns="http://www.w3.org/2000/svg" xmlns:xlink="http://www.w3.org/1999/xlink" viewBox="0 0 821.03 821.03">
  <defs>
    <style>
      .cls-1 {
        stroke: url(#linear-gradient-2);
      }

      .cls-1, .cls-2, .cls-3, .cls-4, .cls-5, .cls-6, .cls-7, .cls-8, .cls-9 {
        fill: none;
      }

      .cls-1, .cls-2, .cls-4, .cls-5, .cls-6, .cls-7, .cls-8, .cls-9 {
        stroke-miterlimit: 10;
      }

      .cls-10 {
        stroke: #3f3f3f;
      }

      .cls-10, .cls-3, .cls-11 {
        stroke-miterlimit: 10;
      }

      .cls-10, .cls-12 {
        fill: #848484;
      }

      .cls-13, .cls-14, .cls-15, .cls-12, .cls-16 {
        stroke-width: 0px;
      }

      .cls-13, .cls-11 {
        fill: #000;
      }

      .cls-2 {
        stroke: url(#linear-gradient-4);
      }

      .cls-3 {
        stroke: #fff;
        stroke-width: 4px;
      }

      .cls-4, .cls-7, .cls-9 {
        stroke: #000;
      }

      .cls-5 {
        stroke: url(#linear-gradient);
      }

      .cls-5, .cls-8, .cls-9 {
        stroke-width: 3px;
      }

      .cls-14 {
        fill: #ddd;
      }

      .cls-6 {
        stroke: url(#linear-gradient-5);
      }

      .cls-15 {
        fill: #bbb;
      }

      .cls-7 {
        stroke-dasharray: 0 0 11.81 11.81;
      }

      .cls-16 {
        fill: #fff;
      }

      .cls-11 {
        stroke: #3e3d3b;
        stroke-width: .5px;
      }

      .cls-8 {
        stroke: url(#linear-gradient-3);
      }
    </style>
    <linearGradient id="linear-gradient" x1="506.25" y1="194.09" x2="787.97" y2="194.09" gradientUnits="userSpaceOnUse">
      <stop offset=".73" stop-color="#231f20"/>
      <stop offset=".75" stop-color="rgba(39, 35, 36, .58)" stop-opacity=".58"/>
      <stop offset=".79" stop-color="rgba(42, 39, 39, .25)" stop-opacity=".25"/>
      <stop offset=".85" stop-color="rgba(44, 41, 41, .05)" stop-opacity=".05"/>
      <stop offset="1" stop-color="#2d2a2a" stop-opacity="0"/>
    </linearGradient>
    <linearGradient id="linear-gradient-2" x1="305.19" y1="675.74" x2="465.69" y2="675.74" gradientUnits="userSpaceOnUse">
      <stop offset=".3" stop-color="#fff" stop-opacity="0"/>
      <stop offset=".46" stop-color="#2b2728" stop-opacity=".96"/>
      <stop offset="1" stop-color="#231f20"/>
    </linearGradient>
    <linearGradient id="linear-gradient-3" x1="184.2" y1="527.83" x2="771.17" y2="527.83" gradientUnits="userSpaceOnUse">
      <stop offset=".89" stop-color="#231f20"/>
      <stop offset="1" stop-color="#fff" stop-opacity="0"/>
    </linearGradient>
    <linearGradient id="linear-gradient-4" x1="399.58" y1="453.27" x2="749.56" y2="453.27" gradientUnits="userSpaceOnUse">
      <stop offset=".73" stop-color="#231f20"/>
      <stop offset=".85" stop-color="#231f20"/>
      <stop offset="1" stop-color="#fff" stop-opacity="0"/>
    </linearGradient>
    <linearGradient id="linear-gradient-5" x1="119.62" y1="681.95" x2="219.06" y2="681.95" gradientUnits="userSpaceOnUse">
      <stop offset="0" stop-color="#fff" stop-opacity="0"/>
      <stop offset=".14" stop-color="#231f20"/>
    </linearGradient>
  </defs>
  <g id="Layer_1-2" data-name="Layer 1">
    <rect class="cls-14" width="821.03" height="821.03"/>
    <path class="cls-15" d="M433.18,413.46c-5.17-2.3-51.7-42.21-51.7-42.21l-84.81-11.18-30.14,24.07-25.03,9.67s-7.09,22.52-8.81,23.09-36.39,27.28-36.39,27.28l4.61,49.2,19.14,19.17,3.45,21.03s-2.3,23.49-.57,25.79,20.11,14.36,20.11,14.36l37.91,18.16s3.45,15.16,3.45,16.88,34.4-4.29,34.4-4.29l22.7-12.59s8.46,3.48,9.29,6.45,33.56-10.24,33.56-10.24l8.44-32.74,23.74-12.64s26.43-9.82,33.89-3.48,21.26,17.26,21.26,17.26c0,0,31.02-29.65,32.17-34.07s8.68-52.1,8.68-52.1l17.74-18.92s-5.84-29.33-8.95-29.91-46.4-28.15-46.4-28.15l-41.74,20.11Z"/>
    <path class="cls-3" d="M544.22,601.02l-18.74-108.25-67.79-64.06s-30.26-58.21-30.26-59.36,22.98-53.62,22.98-53.62l-54.38-40.98-3.26-36.51"/>
    <rect class="cls-11" x="619.57" y="487.02" width="42.48" height="30.67" transform="translate(-3.75 999.9) rotate(-75.76)"/>
    <path class="cls-16" d="M743.43,671.68l-102.63-62.62h-42.63l-53.96-8.04-86.21,27-37.82,27.77s-22.5,42.31-22.5,45.18,22.5,43.09,22.5,43.09l-60.99,33.89,25.03,27.57,80.09-10.91,65.94-34,21.05,25.96,49.73,8.04,77.55-5.17s49.98-21.26,52.85-22.4-29.3-53.43-29.3-53.43l41.28-41.94Z"/>
    <g>
      <polygon class="cls-13" points="563.83 247.59 532.1 270.94 512.52 242.98 544.26 219.63 563.83 247.59"/>
      <rect class="cls-13" x="513.13" y="217.39" width="16.37" height="23.67" transform="translate(-37.2 340.47) rotate(-35)"/>
    </g>
    <g>
      <rect class="cls-13" x="323.06" y="389.36" width="71.04" height="71.04" transform="translate(-195.41 378) rotate(-45)"/>
      <rect class="cls-13" x="288.38" y="448.93" width="61.66" height="30.64" transform="translate(-234.78 361.69) rotate(-45)"/>
      <rect class="cls-13" x="235.7" y="430.08" width="61.66" height="113.4" transform="translate(-266.14 331.04) rotate(-45)"/>
    </g>
    <path class="cls-12" d="M101.36,184.95l35.04,19.49,9.77,36.23,7.15,4.61,11.81,14.35v27l13.85,9.97,20.04-5.95,10.34,8.62,4.6,22.4,7.47,5.79h23.55l12.64-12.69,16.66-8.04,15.76,2.87,20.03-1.72,19.93-25.28-2.87-20.11,28.99-9.77,14.36,6.32,29.6-16.09s18.96-26.43,22.12-28.15,17-29.87,17-29.87l-29.35-20.68,29.35-17.23,47.67,11.49,6.86,10.91,27.59-1.13,6.3-12.66,8.04-13,11.49-4.24s-4.6-12.06-6.32-16.09-2.65-27-2.65-27l-4.24-22.98-34.95-14.94s-48.92-5.17-50.65-5.17-35.04-14.94-37.34-16.66-16.09,1.15-20.68,0-31.6,13.79-31.6,13.79l-16.54,28.72s-21.69,8.04-22.97,8.62-55.27-10.34-55.27-10.34c0,0-7.47-8.04-14.36-11.49s-31.02,5.17-32.74,5.74-14.36,18.38-14.36,18.38l-17.71,17.23-29.39,1.15-37.34,10.34-8.62,18.38-18.96,18.38v17.23l10.91,13.21Z"/>
    <path class="cls-10" d="M169.15,140.14l-16.09,9.19-16.66,15.51,13.79,12.64s6.89,9.19,8.62,13.21,2.3,10.26,1.72,13.75,12.06,24.78,12.06,24.78c0,0,6.32,19.49,6.32,21.21s7.47,14.11,9.19,14.52,22.4,10.18,22.4,10.18c0,0,12.06,0,14.36,8.62s5.42,12.84,5.42,12.84l25.66,6.29,21.2-16.26,12.89-6.32,10.67,1.72,4.6-20.11,4.77-16.64s5.57-4.61,17.06-4.61h25.85l21.83-6.32s12.64-8.62,14.36-9.19,14.32-10.91,14.32-10.91l4.76-7.47-8.73-12.81-4.6-21.08-1.15-12.06s9.19-13.21,12.06-14.36,21.26-4.6,24.13-6.32,32.74-4.02,32.74-4.02l18.96,9.19s.64,5.17,5.2,7.47,19.96-4.6,19.96-4.6c0,0,2.98-3.45,7.01-5.17s12.64-6.89,12.64-6.89v-12.06l8.04,1.72-6.32-13.21s-1.15-6.32-2.3-9.19-13.82-29.87-13.82-29.87l-46.5-5.17s-8.62,2.87-13.21,0-21.83-15.51-21.83-15.51c0,0-.57-3.45-8.33,0s-5.8,6.32-13.96,10.91-9.88,12.64-9.88,17.81-17.81,12.64-19.53,13.79-16.66.57-16.66.57c0,0-1.76-6.32-6.05,0-4.29,6.32-23.2,16.09-23.2,16.09,0,0,1.67,5.17-6.37,4.02-8.04-1.15-22.4-12.06-22.4-12.06l-14.11-4.02-4.17,1.15-25.38,6.32-22.98,17.23-7.22-7.63-15.76-3.86-21.26,1.72s3.45,8.62.57,10.91-24.7,14.36-24.7,14.36Z"/>
    <path class="cls-10" d="M204.87,136.5l-25.34,8.29-4.31,13.81s-5.39.04,0,10.26c5.39,10.22,15.81,10.22,15.72,14.53s-.87,14.02-2.1,15.63-2.55,15.88,0,16.83,6.32,11.74,6.86,13.36,5.39,7.01,5.39,7.01l11.86,9.7,12.4,8.63,8.32,7.01,12.16,16.17,31.27-8.63,12.63-17.25,11.63-14.56,10.78-8.09,4.58.54,18.6-3.73,16.42-2.2,8.37-10.78v-12.4l5.1-7.71-5.64-15.84,5.64-19.58s15.38-14.02,17.54-15.09,9.16-5.93,9.16-5.93l10.24-4.85v-13.48l11.59,5.39s20.75,2.7,22.37,3.23,14.02-3.77,14.02-3.77l13.08,4.85,22.59,7.01,12.28-10.24-.5-6.47-18.87-21.53-23.18-7.58h-33.96l-1.62-4.31s-14.56,7.01-16.17,8.63-21.02,13.48-25.34,18.33-19.98,16.77-26.7,18.36c-6.72,1.59-20.74,5.9-23.97,6.98s-24.8-2.16-24.8-2.16l-13.24-7.01-22.06,2.19s3.51,2.67,0,7.52-15.37,5.8-20.76,7.21-8.09-2.9-9.7-3.44-18.33-8.63-22.64-7.55-9.7,2.7-9.7,2.7Z"/>
    <path class="cls-10" d="M199.56,174.13c1.1,2.19,5.48,11.64,7.67,17.32s3.83,14.44,3.83,18.82-3.29,13.14,2.19,17.52,10.4,5.48,13.69,7.67,7.05,4.96,9,10.42,12.9,12.03,12.9,12.03h14.78l9.86-23s25.19-23.54,26.83-23.54,12.05-3.29,17.52-2.19,13.06-2.19,17.21-6.57,15.65-27.38,15.65-27.38c0,0-.55-3.29,0-8.21s-1.21-9.86-4.71-10.4-10.62-3.83-15.55-1.1-4.93,3.83-19.16,7.67c-14.24,3.83-23.54,0-27.92-.55s-3.81-4.38-8.2-4.38-7.13-4.38-15.34,1.1,3.29,8.76-10.95,6.02c-14.24-2.74-27.92-12.59-27.92-12.59,0,0-22.45,19.16-21.35,21.35Z"/>
    <g>
      <polyline class="cls-4" points="692.96 688.09 692.96 694.09 686.96 694.09"/>
      <line class="cls-7" x1="675.16" y1="694.09" x2="137.94" y2="694.09"/>
      <polyline class="cls-4" points="132.03 694.09 126.03 694.09 126.03 688.09"/>
      <line class="cls-7" x1="126.03" y1="676.29" x2="126.03" y2="139.07"/>
      <polyline class="cls-4" points="126.03 133.16 126.03 127.16 132.03 127.16"/>
      <line class="cls-7" x1="143.84" y1="127.16" x2="681.06" y2="127.16"/>
      <polyline class="cls-4" points="686.96 127.16 692.96 127.16 692.96 133.16"/>
      <line class="cls-7" x1="692.96" y1="144.97" x2="692.96" y2="682.19"/>
    </g>
    <circle class="cls-13" cx="341.5" cy="513.07" r="3.12"/>
    <circle class="cls-13" cx="335.51" cy="526.85" r="2.87"/>
    <circle class="cls-13" cx="325.82" cy="539.63" r="6.28"/>
    <circle class="cls-13" cx="350.27" cy="542.46" r="2.83"/>
    <circle class="cls-13" cx="353.19" cy="525.36" r="2.93"/>
    <circle class="cls-13" cx="346.01" cy="531.61" r="4.26"/>
    <circle class="cls-13" cx="606.32" cy="509.78" r="2.33"/>
    <circle class="cls-13" cx="605.63" cy="490.58" r="3.02"/>
    <circle class="cls-13" cx="583.5" cy="492.77" r="5.99"/>
    <circle class="cls-13" cx="598.63" cy="501.07" r="2.3"/>
    <circle class="cls-13" cx="590.46" cy="507.96" r="4.6"/>
    <circle class="cls-13" cx="620.42" cy="495.67" r="2.9"/>
    <circle class="cls-13" cx="612.76" cy="480.39" r="2.39"/>
    <circle class="cls-13" cx="565.69" cy="597" r="2.68"/>
    <circle class="cls-13" cx="576.35" cy="598.34" r="2.68"/>
    <circle class="cls-13" cx="587.41" cy="599.68" r="2.68"/>
    <circle class="cls-13" cx="599.28" cy="601.02" r="2.68"/>
    <circle class="cls-13" cx="610.58" cy="601.8" r="2.68"/>
    <circle class="cls-13" cx="621.3" cy="602.28" r="2.68"/>
    <circle class="cls-13" cx="632.6" cy="602.36" r="2.68"/>
    <circle class="cls-13" cx="645.27" cy="603.34" r="2.68"/>
    <circle class="cls-13" cx="655.55" cy="607.73" r="2.68"/>
    <circle class="cls-13" cx="568.37" cy="283.85" r="3.02"/>
    <circle class="cls-13" cx="593.99" cy="294.47" r="6.55"/>
    <circle class="cls-13" cx="563.83" cy="302.42" r="6.55"/>
    <circle class="cls-13" cx="580.2" cy="313.32" r="4.7"/>
    <circle class="cls-13" cx="565.35" cy="322.26" r="3.02"/>
    <circle class="cls-13" cx="548.66" cy="311.81" r="1.51"/>
    <circle class="cls-13" cx="553.09" cy="322.26" r="2.45"/>
    <polyline class="cls-5" points="506.36 194.95 560.96 198.97 627 211.03 693.64 194.95 787.69 177.09"/>
    <polyline class="cls-9" points="313.31 456.9 286.31 424.66 305.26 396.58 290.9 345.45 403.1 341.43 436.58 287.7 447.16 270.72 507.7 194.38"/>
    <rect class="cls-13" x="533.2" y="570.74" width="13.53" height="8.04" transform="translate(-96.6 109.26) rotate(-10.61)"/>
    <polyline class="cls-1" points="305.52 764.81 397.63 683.91 415.24 653.27 439.37 630.86 465.17 618.81 463.45 586.33"/>
    <polyline class="cls-8" points="286.69 424.88 247.5 408.16 205.75 439.95 185.84 486.78 212.26 542.97 197.71 583.18 229.5 647.52 350.78 623.4 358.58 620.81 461.58 586.63 501.59 580.13 536.44 575.73 573.67 568.32 610.58 558.08 656.87 570.05 770.56 519.03"/>
    <polyline class="cls-4" points="486.95 435.64 486.95 522.43 412.95 540.4 350.78 623.4"/>
    <rect class="cls-13" x="478.05" y="451.79" width="17.8" height="8.04" transform="translate(31.14 942.77) rotate(-90)"/>
    <rect class="cls-13" x="422.35" y="296.42" width="14.49" height="8.04" transform="translate(-58.56 491.53) rotate(-56.34)"/>
    <polyline class="cls-2" points="400.08 242.97 401.25 270.94 436.96 287.92 468.5 311.81 441.8 369.8 468.5 419.63 530.26 473.2 537.59 509.78 542.57 539.24 548.66 562.71 553.09 591.89 573.67 589.9 596.33 590.28 629.12 591.89 659.55 595.66 682.74 616.32 749.27 663.19"/>
    <polyline class="cls-4" points="522.43 466.41 593.99 424.88 589.49 363.3 573.67 325.27 573.67 295.87 595.05 265.07 627.03 245.28 650.31 205.88"/>
    <polyline class="cls-6" points="120.1 740.87 156.54 623.4 219.04 626.35"/>
    <polyline class="cls-4" points="627.65 562.49 623.98 540.4 627.9 533.04 633.54 522.43"/>
    <polyline class="cls-4" points="586.37 429.31 602.62 464.71 596.33 484.58 613.26 512.12 605.63 522.43 627.9 533.04"/>
    <polyline class="cls-4" points="323.12 471.94 364.49 493.6 376.74 512.12 397.04 544.32 406.77 548.65"/>
    <circle class="cls-13" cx="663.57" cy="613.09" r="2.68"/>
    <circle class="cls-13" cx="670.97" cy="618.45" r="2.68"/>
    <circle class="cls-13" cx="680.54" cy="624.65" r="2.68"/>
    <rect class="cls-13" x="464.94" y="617.45" width="19.99" height="11.88" transform="translate(-131.5 1119.8) rotate(-92)"/>
    <rect class="cls-13" x="467.31" y="612.4" width="3" height="3" transform="translate(958.75 1211.07) rotate(178)"/>
    <rect class="cls-13" x="479.04" y="611.77" width="3" height="3" transform="translate(982.19 1209.4) rotate(178)"/>
    <rect class="cls-13" x="467.64" y="622.09" width="3" height="3" transform="translate(959.76 1230.43) rotate(178)"/>
    <rect class="cls-13" x="479.39" y="621.7" width="3" height="3" transform="translate(983.23 1229.24) rotate(178)"/>
  </g>
</svg>